<?xml version="1.0" encoding="utf-8"?>
<!-- Generator: Adobe Illustrator 25.2.3, SVG Export Plug-In . SVG Version: 6.00 Build 0)  -->
<svg version="1.1" id="Calque_1" xmlns="http://www.w3.org/2000/svg" xmlns:xlink="http://www.w3.org/1999/xlink" x="0px" y="0px"
	 viewBox="0 0 200 200" style="enable-background:new 0 0 200 200;" xml:space="preserve">
<style type="text/css">
	.st0{fill:#66C2A4;}
</style>
<path class="st0" d="M176.8,200H23.2C10.4,200,0,189.6,0,176.8V23.2C0,10.4,10.4,0,23.2,0h153.5C189.6,0,200,10.4,200,23.2v153.5
	C200,189.6,189.6,200,176.8,200z"/>
<path d="M160.1,21.7H39.9c-10.1,0-18.2,8.2-18.2,18.2v120.2c0,10.1,8.2,18.2,18.2,18.2h120.2c10.1,0,18.2-8.2,18.2-18.2V39.9
	C178.3,29.8,170.2,21.7,160.1,21.7z M47.3,40.8c11.4-6.7,26.6-4.8,36.2,4.3c-2.5,3.2-4.9,6.3-6.9,8.8c-4.4-1.7-8.4-4.2-12.7-4.7
	c-11.3-1.5-19.8,8.3-18.7,20.6c1.1,12,12.6,19.2,23.9,15.1c3.2-1.1,5.2-2.7,4.5-6.4c-0.2-1.3,0-2.6,0-4.3h-12V63.2h24.1
	c0,8.1,0,16,0,23.9c0,0.8-0.6,1.8-1.2,2.4c-9.1,7.7-19.6,10.4-31.1,7.3c-10.9-2.9-18.1-10.4-20.2-21.5C30.3,61,34.4,48.4,47.3,40.8z
	 M95.9,160.4H37.8v-8.7h58.1V160.4z M120.4,97.8c-16.8,0-29.7-13.3-29.7-30.5c0.1-16.9,13.1-30.3,29.6-30.4
	c16.6-0.1,29.9,13.5,29.9,30.5C150.1,84.7,137.2,97.9,120.4,97.8z M120.3,49c-9.4,0-16.7,7.9-16.8,18.2c0.2,1.7,0.1,3.3,0.5,5
	c2,8.7,10,14.6,18.4,13.6c9-1.1,15-8.5,15-18.4C137.3,57.1,129.8,49,120.3,49z"/>
</svg>
