<?xml version="1.0" encoding="utf-8"?>
<!-- Generator: Adobe Illustrator 25.2.3, SVG Export Plug-In . SVG Version: 6.00 Build 0)  -->
<svg version="1.1" id="Calque_1" xmlns="http://www.w3.org/2000/svg" xmlns:xlink="http://www.w3.org/1999/xlink" x="0px" y="0px"
	 viewBox="0 0 200 200" style="enable-background:new 0 0 200 200;" xml:space="preserve">
<style type="text/css">
	.st0{fill:#51C1EA;}
</style>
<g>
	<g>
		<path class="st0" d="M200,22.9v153.8c0,12.9-10.4,23.3-23.3,23.3H22.9C10,200-0.4,189.6-0.4,176.7V22.9C-0.4,10,10-0.4,22.9-0.4
			h153.8C189.6-0.4,200,10,200,22.9z"/>
	</g>
	<path d="M160,21.3H39.6c-10.1,0-18.3,8.2-18.3,18.3V160c0,10.1,8.2,18.3,18.3,18.3H160c10.1,0,18.3-8.2,18.3-18.3V39.6
		C178.3,29.5,170.1,21.3,160,21.3z M38.7,151.1c0-1,0-1,1-1h57.9c0,3.2,0,6.2,0,9.2c0,0.2-0.3,0.4-0.5,0.5c-0.1,0.1-0.3,0-0.5,0
		H39.8c-1.2,0-1.2,0-1.2-1.2C38.7,156.2,38.7,153.7,38.7,151.1z M70.5,49.3c0,0.6-0.2,0.8-0.8,0.8c-2.2,0-4.4,0-6.7,0h-0.8
		c0,0.3,0,0.5,0,0.7c0,11.9,0,23.9,0,35.8c0,0.7,0.2,0.9,0.9,0.9c2.2,0,4.4,0,6.7,0c0.5,0,0.8,0.1,0.8,0.7c0,3.1,0,6.3,0,9.4
		c0,0.6-0.2,0.8-0.8,0.8c-9.4,0-18.7,0-28.1,0c-0.6,0-0.8-0.2-0.8-0.7c0-3.2,0-6.3,0-9.5c0-0.6,0.2-0.7,0.7-0.7c2.3,0,4.5,0,6.8,0
		c0.6,0,0.8-0.1,0.8-0.7c0-12.2,0-24.3,0-36.5c0,0,0,0-0.1-0.2h-0.8c-2.2,0-4.5,0-6.7,0c-0.5,0-0.7-0.1-0.7-0.7c0-3.2,0-6.4,0-9.7
		c0-0.6,0.2-0.7,0.7-0.7c9.4,0,18.8,0,28.1,0c0.6,0,0.8,0.2,0.8,0.8C70.5,43,70.5,46.2,70.5,49.3z M95.7,99
		c-6.3-0.6-11.2-3.7-15.5-8.1c-0.4-0.5-0.4-0.8,0-1.2c2.4-2.6,4.8-5.3,7.1-7.9c0.2-0.2,0.3-0.3,0.4-0.4c1.8,1.4,3.4,2.9,5.2,4.1
		c2,1.4,4.4,1.8,6.9,1.6c3.3-0.3,5.3-2.2,6.2-5.2c0.4-1.4,0.6-2.9,0.6-4.3c0-12.4,0-24.9,0-37.3c0-1,0-1,1-1c3.9,0,7.8,0,11.6,0
		c0.6,0,0.8,0.2,0.8,0.8c0,13.1,0,26.1-0.1,39.2c0,4.5-1,8.7-3.7,12.4c-2,2.8-4.6,4.8-7.8,6.1C104.3,99.2,100,99.4,95.7,99z"/>
</g>
</svg>
