<?xml version="1.0" encoding="utf-8"?>
<!-- Generator: Adobe Illustrator 25.2.3, SVG Export Plug-In . SVG Version: 6.00 Build 0)  -->
<svg version="1.1" id="Calque_1" xmlns="http://www.w3.org/2000/svg" xmlns:xlink="http://www.w3.org/1999/xlink" x="0px" y="0px"
	 viewBox="0 0 200 200" style="enable-background:new 0 0 200 200;" xml:space="preserve">
<style type="text/css">
	.st0{fill:#F3921F;}
</style>
<path class="st0" d="M176.7,200H23.1c-12.8,0-23.2-10.4-23.2-23.2V23.2C-0.1,10.4,10.3,0,23.1,0h153.5c12.8,0,23.2,10.4,23.2,23.2
	v153.5C199.9,189.6,189.5,200,176.7,200z"/>
<path d="M59.2,51.4c-4-0.4-8-0.1-12.2-0.1v17.1c4.1,0,8.2,0.3,12.1-0.1c4.8-0.5,7.6-3.9,7.6-8.7C66.7,55.1,64,51.9,59.2,51.4z
	 M59.2,51.4c-4-0.4-8-0.1-12.2-0.1v17.1c4.1,0,8.2,0.3,12.1-0.1c4.8-0.5,7.6-3.9,7.6-8.7C66.7,55.1,64,51.9,59.2,51.4z M160,21.7
	H39.8c-10.1,0-18.2,8.2-18.2,18.2v120.2c0,10.1,8.2,18.2,18.2,18.2H160c10.1,0,18.2-8.2,18.2-18.2V39.9
	C178.2,29.8,170.1,21.7,160,21.7z M34.2,39.2c3,0,5.8,0,8.6,0c6,0.1,12-0.1,18,0.3c11.2,0.7,18.6,8,18.9,18.3
	c0.3,11.3-6.4,19.5-17.8,20.9c-4.8,0.6-9.8,0.6-15.1,0.9v16.7H34.2V39.2z M99.3,155.9H32.6v-10.8h66.7V155.9z M114,99.1
	c-11.9-1-22.9-11.3-25.1-23.3c-2.6-14.2,3.8-27.1,16.1-32.9c11.8-5.5,27.3-2.8,35.2,6.4c-2.6,3.1-5,6-7.7,9.1
	c-5.2-4.3-10.7-7.6-17.8-6.1c-4,0.8-7.2,2.9-9.7,6.2c-5.2,7-4.6,17.8,1.4,24.2c6.5,6.9,14.9,6.5,27.6-1.9c0.8,1.2,5.4,6.5,6.6,7.6
	C138.1,95.2,125.7,100.1,114,99.1z M59.1,68.4c4.8-0.5,7.6-3.9,7.6-8.7c0-4.6-2.7-7.8-7.5-8.3c-4-0.4-8-0.1-12.2-0.1v17.1
	C51.1,68.5,55.1,68.8,59.1,68.4z"/>
</svg>
