<?xml version="1.0" encoding="utf-8"?>
<!-- Generator: Adobe Illustrator 25.2.3, SVG Export Plug-In . SVG Version: 6.00 Build 0)  -->
<svg version="1.1" id="Calque_1" xmlns="http://www.w3.org/2000/svg" xmlns:xlink="http://www.w3.org/1999/xlink" x="0px" y="0px"
	 viewBox="0 0 200 200" style="enable-background:new 0 0 200 200;" xml:space="preserve">
<style type="text/css">
	.st0{fill:#445061;}
	.st1{fill:#231F20;}
</style>
<path class="st0" d="M176.8,200.1H23.2C10.4,200.1,0,189.7,0,176.9V23.4C0,10.5,10.4,0.1,23.2,0.1h153.5c12.8,0,23.2,10.4,23.2,23.2
	v153.5C200,189.7,189.6,200.1,176.8,200.1z"/>
<path class="st1" d="M39.9,178.4h120.2c10.1,0,18.2-8.2,18.2-18.2V40c0-10.1-8.2-18.2-18.2-18.2H39.9C29.8,21.8,21.7,30,21.7,40
	v120.2C21.7,170.3,29.8,178.4,39.9,178.4z"/>
<g>
	<path class="st0" d="M122,152.2c0.7,0,1.5-0.1,2.1-0.6c0.5-0.5,0.6-1.2,0.6-1.3v-25.4L52.8,70.5c0,0-0.1-0.1-0.1-0.1
		c-0.5-0.4-0.8-0.4-1.2-0.3c-0.4,0.1-0.7,0.4-0.8,0.5c0,0-0.1,0.1-0.1,0.1l-7.9,7c0,0-0.1,0-0.1,0.1c-0.8,0.6-1,1-1,1.2
		c0,0.2,0.3,0.5,0.3,0.5c0.1,0,0.1,0.1,0.2,0.1L122,152.2z M124.7,150.3C124.7,150.3,124.7,150.4,124.7,150.3
		C124.7,150.4,124.7,150.4,124.7,150.3L124.7,150.3C124.7,150.4,124.7,150.3,124.7,150.3z"/>
</g>
<g>
	<path class="st0" d="M51,125.7c0.3,0.3,1.1,0.7,2.5-0.5c0,0,0,0,0.1,0l18-13.7l-12-10.9l-17.4,15.9c-0.1,0.1-0.1,0.1-0.1,0.1
		c-0.3,0.3,0,0.8,0.3,1.2L51,125.7C50.9,125.6,50.9,125.6,51,125.7z M51,125.7L51,125.7L51,125.7z M40.9,115.1L40.9,115.1
		L40.9,115.1z"/>
</g>
<g>
	<path class="st0" d="M77.5,84.5l15,11.4l32.4-24.8l-0.2-25c-0.2-0.6-0.7-1.6-1.4-1.9c-0.6-0.2-1.3,0.1-1.9,0.4L77.5,84.5z"/>
</g>
<g>
	<path class="st0" d="M128.1,44.3c0.1,0.3,0.2,0.5,0.3,0.8c0.1,0.2,0.1,0.4,0.1,0.6v104.1c0,0.8-0.1,1.5-0.4,2.2l23.3-11.5
		c2.2-1.6,2-3.3,2-3.3c0-0.1,0-0.2,0-0.3V58.3c0-2-2.1-2.8-2.3-2.9c-0.1,0-0.1,0-0.2-0.1L128.1,44.3z"/>
</g>
</svg>
